<?xml version="1.0" encoding="UTF-8"?>
<svg xmlns="http://www.w3.org/2000/svg" xmlns:xlink="http://www.w3.org/1999/xlink" width="224pt" height="366pt" viewBox="0 0 224 366" version="1.1">
<g id="surface1">
<path style=" stroke:none;fill-rule:nonzero;fill:rgb(0%,0%,0%);fill-opacity:1;" d="M 0 336.195312 L 0 172.683594 L 0.0351562 172.675781 C 0.0351562 156.371094 12.605469 142.824219 29.894531 142.824219 L 194.148438 142.824219 C 210.871094 142.824219 223.988281 156.183594 223.988281 172.683594 L 223.988281 336.195312 L 223.996094 336.230469 C 224.027344 353.632812 210.683594 365.851562 194.335938 365.851562 L 29.894531 365.851562 L 29.890625 365.859375 C 13.542969 365.859375 -0.00390625 352.882812 -0.00390625 336.195312 Z M 0 336.195312 "/>
<path style=" stroke:none;fill-rule:nonzero;fill:rgb(100%,100%,100%);fill-opacity:1;" d="M 30.953125 174.078125 L 193.039062 174.078125 L 193.039062 334.867188 L 30.953125 334.867188 Z M 30.953125 174.078125 "/>
<path style=" stroke:none;fill-rule:nonzero;fill:rgb(0%,0%,0%);fill-opacity:1;" d="M 152.519531 16.273438 C 152.335938 -5.113281 183.347656 -5.355469 183.527344 16.273438 L 183.0625 81.167969 L 199.734375 60.785156 C 211.25 48.171875 231.503906 65.753906 219 80.007812 L 178.550781 128.054688 C 172.160156 134.429688 163.855469 134.394531 157.503906 128.054688 L 117.230469 79.820312 C 104.738281 65.566406 125.179688 47.796875 136.5 60.597656 L 152.992188 81.167969 Z M 152.519531 16.273438 "/>
<path style=" stroke:none;fill-rule:nonzero;fill:rgb(0%,0%,0%);fill-opacity:1;" d="M 39.949219 116.828125 C 39.769531 138.210938 70.777344 138.457031 70.957031 116.828125 L 70.484375 51.929688 L 87.164062 72.316406 C 98.679688 84.925781 118.921875 67.347656 106.429688 53.097656 L 65.976562 5.046875 C 59.585938 -1.328125 51.28125 -1.292969 44.929688 5.046875 L 4.664062 53.285156 C -7.832031 67.535156 12.605469 85.300781 23.925781 72.503906 L 40.417969 51.929688 Z M 39.949219 116.828125 "/>
<path style=" stroke:none;fill-rule:nonzero;fill:rgb(0%,0%,0%);fill-opacity:1;" d="M 185.355469 266.183594 C 185.355469 269.441406 182.730469 271.703125 179.84375 271.703125 L 143.542969 271.703125 C 140.695312 271.703125 138.023438 269.402344 138.023438 266.183594 L 138.023438 226.828125 C 138.023438 222.3125 141.648438 219.222656 145.609375 219.222656 L 177.746094 219.222656 C 182.070312 219.222656 185.355469 222.652344 185.355469 226.828125 Z M 185.355469 266.183594 "/>
<path style=" stroke:none;fill-rule:nonzero;fill:rgb(0%,0%,0%);fill-opacity:1;" d="M 176.484375 270.265625 L 162.675781 270.265625 L 162.675781 323.488281 C 162.675781 332.929688 176.484375 332.929688 176.484375 323.488281 Z M 176.484375 270.265625 "/>
<path style=" stroke:none;fill-rule:nonzero;fill:rgb(0%,0%,0%);fill-opacity:1;" d="M 160.570312 270.265625 L 146.761719 270.265625 L 146.761719 323.488281 C 146.761719 332.855469 160.570312 332.855469 160.570312 323.488281 Z M 160.570312 270.265625 "/>
<path style=" stroke:none;fill-rule:nonzero;fill:rgb(0%,0%,0%);fill-opacity:1;" d="M 161.824219 216.027344 C 167.546875 216.027344 172.191406 211.394531 172.191406 205.683594 C 172.191406 199.96875 167.546875 195.34375 161.824219 195.34375 C 156.097656 195.34375 151.457031 199.96875 151.457031 205.683594 C 151.457031 211.394531 156.097656 216.027344 161.824219 216.027344 Z M 161.824219 216.027344 "/>
<path style=" stroke:none;fill-rule:nonzero;fill:rgb(0%,0%,0%);fill-opacity:1;" d="M 135.738281 266.183594 C 135.738281 269.441406 133.117188 271.703125 130.230469 271.703125 L 93.929688 271.703125 C 91.078125 271.703125 88.410156 269.402344 88.410156 266.183594 L 88.410156 226.828125 C 88.410156 222.3125 92.035156 219.222656 95.996094 219.222656 L 128.132812 219.222656 C 132.453125 219.222656 135.738281 222.652344 135.738281 226.828125 Z M 135.738281 266.183594 "/>
<path style=" stroke:none;fill-rule:nonzero;fill:rgb(0%,0%,0%);fill-opacity:1;" d="M 126.871094 270.265625 L 113.058594 270.265625 L 113.058594 323.488281 C 113.058594 332.929688 126.871094 332.929688 126.871094 323.488281 Z M 126.871094 270.265625 "/>
<path style=" stroke:none;fill-rule:nonzero;fill:rgb(0%,0%,0%);fill-opacity:1;" d="M 110.957031 270.265625 L 97.144531 270.265625 L 97.144531 323.488281 C 97.144531 332.855469 110.957031 332.855469 110.957031 323.488281 Z M 110.957031 270.265625 "/>
<path style=" stroke:none;fill-rule:nonzero;fill:rgb(0%,0%,0%);fill-opacity:1;" d="M 112.210938 216.027344 C 117.929688 216.027344 122.578125 211.394531 122.578125 205.683594 C 122.578125 199.96875 117.929688 195.34375 112.210938 195.34375 C 106.480469 195.34375 101.84375 199.96875 101.84375 205.683594 C 101.84375 211.394531 106.480469 216.027344 112.210938 216.027344 Z M 112.210938 216.027344 "/>
<path style=" stroke:none;fill-rule:nonzero;fill:rgb(0%,0%,0%);fill-opacity:1;" d="M 86.125 266.183594 C 86.125 269.441406 83.503906 271.703125 80.617188 271.703125 L 44.316406 271.703125 C 41.46875 271.703125 38.796875 269.402344 38.796875 266.183594 L 38.796875 226.828125 C 38.796875 222.3125 42.421875 219.222656 46.382812 219.222656 L 78.519531 219.222656 C 82.839844 219.222656 86.125 222.652344 86.125 226.828125 Z M 86.125 266.183594 "/>
<path style=" stroke:none;fill-rule:nonzero;fill:rgb(0%,0%,0%);fill-opacity:1;" d="M 77.253906 270.265625 L 63.441406 270.265625 L 63.441406 323.488281 C 63.441406 332.929688 77.253906 332.929688 77.253906 323.488281 Z M 77.253906 270.265625 "/>
<path style=" stroke:none;fill-rule:nonzero;fill:rgb(0%,0%,0%);fill-opacity:1;" d="M 61.34375 270.265625 L 47.53125 270.265625 L 47.53125 323.488281 C 47.53125 332.855469 61.34375 332.855469 61.34375 323.488281 Z M 61.34375 270.265625 "/>
<path style=" stroke:none;fill-rule:nonzero;fill:rgb(0%,0%,0%);fill-opacity:1;" d="M 62.59375 216.027344 C 68.320312 216.027344 72.960938 211.394531 72.960938 205.683594 C 72.960938 199.96875 68.320312 195.34375 62.59375 195.34375 C 56.871094 195.34375 52.230469 199.96875 52.230469 205.683594 C 52.230469 211.394531 56.871094 216.027344 62.59375 216.027344 Z M 62.59375 216.027344 "/>
</g>
</svg>
